<?xml version="1.0" encoding="UTF-8" standalone="no"?>
<!DOCTYPE svg PUBLIC "-//W3C//DTD SVG 1.1//EN" "http://www.w3.org/Graphics/SVG/1.1/DTD/svg11.dtd">
<svg width="100%" height="100%" viewBox="0 0 831 196" version="1.1" xmlns="http://www.w3.org/2000/svg" xmlns:xlink="http://www.w3.org/1999/xlink" xml:space="preserve" xmlns:serif="http://www.serif.com/" style="fill-rule:evenodd;clip-rule:evenodd;stroke-linejoin:round;stroke-miterlimit:2;">
    <g id="EncontreAqui" transform="matrix(1.333333,0,0,1.333333,-4.120963,63.348959)">
        <g id="E" transform="matrix(1,0,0,1,0.356347,40.517645)">
            <path d="M2.734,0L2.734,-28.188L21.141,-28.188L21.141,-24.031L7.891,-24.031L7.891,-16.312L19.938,-16.312L19.938,-12.281L7.891,-12.281L7.891,-4.141L21.141,-4.141L21.141,0L2.734,0Z" style="fill-rule:nonzero;"/>
        </g>
        <g id="n" transform="matrix(1,0,0,1,20.285944,40.517645)">
            <path d="M2.625,0L2.625,-19.969L7.172,-19.969L7.562,-16.594C8.188,-17.77 9.082,-18.707 10.25,-19.406C11.414,-20.102 12.789,-20.453 14.375,-20.453C16.844,-20.453 18.758,-19.672 20.125,-18.109C21.5,-16.555 22.188,-14.281 22.188,-11.281L22.188,0L17.031,0L17.031,-10.797C17.031,-12.516 16.68,-13.828 15.984,-14.734C15.285,-15.648 14.195,-16.109 12.719,-16.109C11.27,-16.109 10.082,-15.598 9.156,-14.578C8.227,-13.555 7.766,-12.133 7.766,-10.312L7.766,0L2.625,0Z" style="fill-rule:nonzero;"/>
        </g>
        <g id="c" transform="matrix(1,0,0,1,41.423434,40.517645)">
            <path d="M12.406,0.484C10.363,0.484 8.562,0.039 7,-0.844C5.445,-1.727 4.219,-2.961 3.312,-4.547C2.414,-6.129 1.969,-7.941 1.969,-9.984C1.969,-12.023 2.414,-13.836 3.312,-15.422C4.219,-17.004 5.445,-18.238 7,-19.125C8.562,-20.008 10.363,-20.453 12.406,-20.453C14.957,-20.453 17.102,-19.785 18.844,-18.453C20.594,-17.129 21.707,-15.301 22.188,-12.969L16.75,-12.969C16.477,-13.938 15.945,-14.691 15.156,-15.234C14.363,-15.785 13.43,-16.062 12.359,-16.062C10.941,-16.062 9.734,-15.523 8.734,-14.453C7.742,-13.379 7.25,-11.891 7.25,-9.984C7.25,-8.078 7.742,-6.586 8.734,-5.516C9.734,-4.441 10.941,-3.906 12.359,-3.906C13.43,-3.906 14.363,-4.172 15.156,-4.703C15.945,-5.242 16.477,-6.008 16.75,-7L22.188,-7C21.707,-4.75 20.594,-2.938 18.844,-1.562C17.102,-0.195 14.957,0.484 12.406,0.484Z" style="fill-rule:nonzero;"/>
        </g>
        <g id="o" transform="matrix(1,0,0,1,62.238821,40.517645)">
            <path d="M12.203,0.484C10.266,0.484 8.523,0.039 6.984,-0.844C5.441,-1.727 4.219,-2.957 3.312,-4.531C2.414,-6.102 1.969,-7.922 1.969,-9.984C1.969,-12.055 2.426,-13.875 3.344,-15.438C4.258,-17.008 5.488,-18.238 7.031,-19.125C8.57,-20.008 10.305,-20.453 12.234,-20.453C14.141,-20.453 15.863,-20.008 17.406,-19.125C18.957,-18.238 20.18,-17.008 21.078,-15.438C21.973,-13.875 22.422,-12.055 22.422,-9.984C22.422,-7.922 21.973,-6.102 21.078,-4.531C20.18,-2.957 18.953,-1.727 17.391,-0.844C15.836,0.039 14.109,0.484 12.203,0.484ZM12.203,-3.984C13.547,-3.984 14.711,-4.484 15.703,-5.484C16.691,-6.492 17.188,-7.992 17.188,-9.984C17.188,-11.973 16.691,-13.469 15.703,-14.469C14.711,-15.477 13.555,-15.984 12.234,-15.984C10.867,-15.984 9.695,-15.477 8.719,-14.469C7.738,-13.469 7.25,-11.973 7.25,-9.984C7.25,-7.992 7.738,-6.492 8.719,-5.484C9.695,-4.484 10.859,-3.984 12.203,-3.984Z" style="fill-rule:nonzero;"/>
        </g>
        <g id="n1" serif:id="n" transform="matrix(1,0,0,1,83.295784,40.517645)">
            <path d="M2.625,0L2.625,-19.969L7.172,-19.969L7.562,-16.594C8.188,-17.77 9.082,-18.707 10.25,-19.406C11.414,-20.102 12.789,-20.453 14.375,-20.453C16.844,-20.453 18.758,-19.672 20.125,-18.109C21.5,-16.555 22.188,-14.281 22.188,-11.281L22.188,0L17.031,0L17.031,-10.797C17.031,-12.516 16.68,-13.828 15.984,-14.734C15.285,-15.648 14.195,-16.109 12.719,-16.109C11.27,-16.109 10.082,-15.598 9.156,-14.578C8.227,-13.555 7.766,-12.133 7.766,-10.312L7.766,0L2.625,0Z" style="fill-rule:nonzero;"/>
        </g>
        <g id="t" transform="matrix(1,0,0,1,104.433274,40.517645)">
            <path d="M11.516,0C9.422,0 7.742,-0.508 6.484,-1.531C5.223,-2.551 4.594,-4.363 4.594,-6.969L4.594,-15.656L1.172,-15.656L1.172,-19.969L4.594,-19.969L5.188,-25.328L9.75,-25.328L9.75,-19.969L15.141,-19.969L15.141,-15.656L9.75,-15.656L9.75,-6.922C9.75,-5.953 9.957,-5.285 10.375,-4.922C10.789,-4.566 11.504,-4.391 12.516,-4.391L15.016,-4.391L15.016,0L11.516,0Z" style="fill-rule:nonzero;"/>
        </g>
        <g id="r" transform="matrix(1,0,0,1,118.04156,40.517645)">
            <path d="M2.625,0L2.625,-19.969L7.203,-19.969L7.688,-16.234C8.414,-17.516 9.398,-18.535 10.641,-19.297C11.891,-20.066 13.363,-20.453 15.062,-20.453L15.062,-15.016L13.609,-15.016C12.484,-15.016 11.477,-14.836 10.594,-14.484C9.707,-14.141 9.016,-13.535 8.516,-12.672C8.016,-11.816 7.766,-10.625 7.766,-9.094L7.766,0L2.625,0Z" style="fill-rule:nonzero;"/>
        </g>
        <g id="e" transform="matrix(1,0,0,1,130.643265,40.517645)">
            <path d="M12.328,0.484C10.305,0.484 8.516,0.055 6.953,-0.797C5.398,-1.66 4.18,-2.867 3.297,-4.422C2.41,-5.984 1.969,-7.785 1.969,-9.828C1.969,-11.891 2.406,-13.723 3.281,-15.328C4.156,-16.941 5.363,-18.195 6.906,-19.094C8.445,-20 10.266,-20.453 12.359,-20.453C14.316,-20.453 16.047,-20.02 17.547,-19.156C19.055,-18.301 20.234,-17.129 21.078,-15.641C21.922,-14.148 22.344,-12.492 22.344,-10.672C22.344,-10.379 22.336,-10.07 22.328,-9.75C22.316,-9.426 22.297,-9.086 22.266,-8.734L7.094,-8.734C7.195,-7.18 7.738,-5.961 8.719,-5.078C9.695,-4.191 10.883,-3.75 12.281,-3.75C13.32,-3.75 14.195,-3.984 14.906,-4.453C15.625,-4.922 16.16,-5.531 16.516,-6.281L21.75,-6.281C21.363,-5.02 20.734,-3.867 19.859,-2.828C18.992,-1.797 17.922,-0.984 16.641,-0.391C15.367,0.191 13.93,0.484 12.328,0.484ZM12.359,-16.266C11.098,-16.266 9.984,-15.91 9.016,-15.203C8.047,-14.492 7.43,-13.41 7.172,-11.953L17.109,-11.953C17.023,-13.273 16.539,-14.32 15.656,-15.094C14.77,-15.875 13.672,-16.266 12.359,-16.266Z" style="fill-rule:nonzero;"/>
        </g>
        <g id="A" transform="matrix(1,0,0,1,157.620013,40.517645)">
            <path d="M1.203,0L11.594,-28.188L15.188,-28.188L25.531,0L21.938,0L19.375,-7.25L7.375,-7.25L4.75,0L1.203,0ZM8.375,-9.984L18.359,-9.984L13.375,-23.922L8.375,-9.984Z" style="fill-rule:nonzero;"/>
        </g>
        <g id="q" transform="matrix(1,0,0,1,181.012241,40.517645)">
            <path d="M19.172,8.859L19.172,-3.297C18.523,-2.336 17.598,-1.469 16.391,-0.688C15.18,0.094 13.664,0.484 11.844,0.484C9.852,0.484 8.113,0.031 6.625,-0.875C5.133,-1.789 3.977,-3.039 3.156,-4.625C2.344,-6.207 1.938,-8.008 1.938,-10.031C1.938,-12.039 2.348,-13.828 3.172,-15.391C4.004,-16.961 5.16,-18.195 6.641,-19.094C8.117,-20 9.863,-20.453 11.875,-20.453C13.508,-20.453 14.957,-20.113 16.219,-19.438C17.488,-18.77 18.473,-17.832 19.172,-16.625L19.484,-19.969L22.547,-19.969L22.547,8.859L19.172,8.859ZM12.203,-2.453C13.547,-2.453 14.734,-2.766 15.766,-3.391C16.797,-4.023 17.598,-4.906 18.172,-6.031C18.754,-7.164 19.047,-8.484 19.047,-9.984C19.047,-11.484 18.754,-12.797 18.172,-13.922C17.598,-15.055 16.797,-15.938 15.766,-16.562C14.734,-17.195 13.547,-17.516 12.203,-17.516C10.891,-17.516 9.711,-17.195 8.672,-16.562C7.641,-15.938 6.832,-15.055 6.25,-13.922C5.676,-12.797 5.391,-11.484 5.391,-9.984C5.391,-8.484 5.676,-7.164 6.25,-6.031C6.832,-4.906 7.641,-4.023 8.672,-3.391C9.711,-2.766 10.891,-2.453 12.203,-2.453Z" style="fill-rule:nonzero;"/>
        </g>
        <g id="u" transform="matrix(1,0,0,1,202.954993,40.517645)">
            <path d="M10.062,0.484C7.695,0.484 5.816,-0.234 4.422,-1.672C3.023,-3.109 2.328,-5.316 2.328,-8.297L2.328,-19.969L5.719,-19.969L5.719,-8.656C5.719,-4.5 7.422,-2.422 10.828,-2.422C12.578,-2.422 14.02,-3.039 15.156,-4.281C16.301,-5.531 16.875,-7.312 16.875,-9.625L16.875,-19.969L20.25,-19.969L20.25,0L17.188,0L16.953,-3.578C16.336,-2.316 15.414,-1.32 14.188,-0.594C12.969,0.125 11.594,0.484 10.062,0.484Z" style="fill-rule:nonzero;"/>
        </g>
        <g id="i" transform="matrix(1,0,0,1,222.643008,40.517645)">
            <path d="M4.828,-24.406C4.16,-24.406 3.602,-24.625 3.156,-25.062C2.719,-25.508 2.5,-26.066 2.5,-26.734C2.5,-27.379 2.719,-27.914 3.156,-28.344C3.602,-28.77 4.16,-28.984 4.828,-28.984C5.473,-28.984 6.023,-28.77 6.484,-28.344C6.941,-27.914 7.172,-27.379 7.172,-26.734C7.172,-26.066 6.941,-25.508 6.484,-25.062C6.023,-24.625 5.473,-24.406 4.828,-24.406ZM3.141,0L3.141,-19.969L6.516,-19.969L6.516,0L3.141,0Z" style="fill-rule:nonzero;"/>
        </g>
    </g>
    <g id="imóveis" transform="matrix(1.333333,0,0,1.333333,499.879037,50.015625)">
        <g id="i1" serif:id="i" transform="matrix(1,0,0,1,0.592217,82.204057)">
            <path d="M7.109,0L7.109,-39.641L13.516,-39.641L13.516,0L7.109,0ZM5.125,-51.188C5.125,-52.656 5.594,-53.859 6.531,-54.797C7.469,-55.742 8.727,-56.219 10.312,-56.219C11.895,-56.219 13.145,-55.742 14.062,-54.797C14.977,-53.859 15.438,-52.656 15.438,-51.188C15.438,-49.758 14.977,-48.57 14.062,-47.625C13.145,-46.688 11.895,-46.219 10.312,-46.219C8.727,-46.219 7.469,-46.688 6.531,-47.625C5.594,-48.57 5.125,-49.758 5.125,-51.188Z" style="fill:rgb(255,202,69);fill-rule:nonzero;"/>
        </g>
        <g id="m" transform="matrix(1,0,0,1,12.73852,82.204057)">
            <path d="M7.109,0L7.109,-39.641L12.375,-39.641L12.984,-34.688C16.035,-38.656 20.336,-40.641 25.891,-40.641C29.047,-40.641 31.82,-39.977 34.219,-38.656C36.613,-37.332 38.473,-35.395 39.797,-32.844C43.004,-38.039 47.922,-40.641 54.547,-40.641C59.535,-40.641 63.52,-39.035 66.5,-35.828C69.477,-32.617 70.969,-28.238 70.969,-22.688L70.969,0L64.547,0L64.547,-21.625C64.547,-25.539 63.566,-28.672 61.609,-31.016C59.648,-33.359 57.016,-34.531 53.703,-34.531C50.285,-34.531 47.52,-33.305 45.406,-30.859C43.301,-28.41 42.25,-25.148 42.25,-21.078L42.25,0L35.828,0L35.828,-21.625C35.828,-25.539 34.844,-28.672 32.875,-31.016C30.914,-33.359 28.285,-34.531 24.984,-34.531C21.566,-34.531 18.801,-33.305 16.688,-30.859C14.57,-28.41 13.516,-25.148 13.516,-21.078L13.516,0L7.109,0Z" style="fill:rgb(255,202,69);fill-rule:nonzero;"/>
        </g>
        <g id="ó" transform="matrix(1,0,0,1,81.570179,82.204057)">
            <path d="M24.984,1C20.859,1 17.211,0.109 14.047,-1.672C10.891,-3.461 8.422,-5.938 6.641,-9.094C4.859,-12.25 3.969,-15.836 3.969,-19.859C3.969,-23.93 4.859,-27.52 6.641,-30.625C8.422,-33.738 10.891,-36.188 14.047,-37.969C17.211,-39.75 20.859,-40.641 24.984,-40.641C29.109,-40.641 32.75,-39.75 35.906,-37.969C39.062,-36.188 41.531,-33.738 43.312,-30.625C45.094,-27.52 45.984,-23.93 45.984,-19.859C45.984,-15.836 45.094,-12.25 43.312,-9.094C41.531,-5.938 39.062,-3.461 35.906,-1.672C32.75,0.109 29.109,1 24.984,1ZM10.391,-19.859C10.391,-16.953 11.008,-14.391 12.25,-12.172C13.5,-9.961 15.219,-8.242 17.406,-7.016C19.602,-5.797 22.129,-5.188 24.984,-5.188C27.828,-5.188 30.344,-5.797 32.531,-7.016C34.727,-8.242 36.453,-9.961 37.703,-12.172C38.953,-14.391 39.578,-16.953 39.578,-19.859C39.578,-22.766 38.953,-25.312 37.703,-27.5C36.453,-29.688 34.727,-31.406 32.531,-32.656C30.344,-33.906 27.828,-34.531 24.984,-34.531C22.129,-34.531 19.602,-33.906 17.406,-32.656C15.219,-31.406 13.5,-29.688 12.25,-27.5C11.008,-25.312 10.391,-22.766 10.391,-19.859ZM21.391,-45.906L25.672,-57.672L32.547,-57.672L27.344,-45.906L21.391,-45.906Z" style="fill:rgb(255,202,69);fill-rule:nonzero;"/>
        </g>
        <g id="v" transform="matrix(1,0,0,1,123.052304,82.204057)">
            <path d="M18.562,0L1.219,-39.641L8.172,-39.641L13.594,-27.125L21.688,-8.562L29.719,-27.125L35.219,-39.641L42.172,-39.641L24.75,0L18.562,0Z" style="fill:rgb(255,202,69);fill-rule:nonzero;"/>
        </g>
        <g id="e1" serif:id="e" transform="matrix(1,0,0,1,157.964422,82.204057)">
            <path d="M24.297,1C20.316,1 16.801,0.117 13.75,-1.641C10.695,-3.398 8.301,-5.859 6.562,-9.016C4.832,-12.172 3.969,-15.785 3.969,-19.859C3.969,-23.93 4.832,-27.535 6.562,-30.672C8.301,-33.805 10.707,-36.25 13.781,-38C16.863,-39.758 20.395,-40.641 24.375,-40.641C28.594,-40.641 32.254,-39.645 35.359,-37.656C38.473,-35.676 40.859,-32.941 42.516,-29.453C44.172,-25.961 44.922,-21.898 44.766,-17.266L10.469,-17.266C10.977,-13.547 12.477,-10.578 14.969,-8.359C17.469,-6.148 20.602,-5.047 24.375,-5.047C26.969,-5.047 29.332,-5.602 31.469,-6.719C33.613,-7.844 35.297,-9.445 36.516,-11.531L43.766,-11.531C42.191,-7.664 39.672,-4.609 36.203,-2.359C32.742,-0.117 28.773,1 24.297,1ZM10.547,-22.922L38.344,-22.922C37.688,-26.535 36.098,-29.383 33.578,-31.469C31.055,-33.562 27.988,-34.609 24.375,-34.609C20.707,-34.609 17.625,-33.535 15.125,-31.391C12.625,-29.254 11.098,-26.43 10.547,-22.922Z" style="fill:rgb(255,202,69);fill-rule:nonzero;"/>
        </g>
        <g id="i2" serif:id="i" transform="matrix(1,0,0,1,198.071425,82.204057)">
            <path d="M7.109,0L7.109,-39.641L13.516,-39.641L13.516,0L7.109,0ZM5.125,-51.188C5.125,-52.656 5.594,-53.859 6.531,-54.797C7.469,-55.742 8.727,-56.219 10.312,-56.219C11.895,-56.219 13.145,-55.742 14.062,-54.797C14.977,-53.859 15.438,-52.656 15.438,-51.188C15.438,-49.758 14.977,-48.57 14.062,-47.625C13.145,-46.688 11.895,-46.219 10.312,-46.219C8.727,-46.219 7.469,-46.688 6.531,-47.625C5.594,-48.57 5.125,-49.758 5.125,-51.188Z" style="fill:rgb(255,202,69);fill-rule:nonzero;"/>
        </g>
        <g id="s" transform="matrix(1,0,0,1,210.217735,82.204057)">
            <path d="M21.469,1C16.27,1 12.102,-0.234 8.969,-2.703C5.844,-5.18 4.227,-8.43 4.125,-12.453L10.469,-12.453C10.57,-10.055 11.586,-8.172 13.516,-6.797C15.453,-5.422 18.129,-4.734 21.547,-4.734C24.547,-4.734 26.91,-5.254 28.641,-6.297C30.379,-7.348 31.25,-8.766 31.25,-10.547C31.25,-12.328 30.344,-13.773 28.531,-14.891C26.719,-16.016 23.879,-16.906 20.016,-17.562C14.922,-18.438 11.141,-19.836 8.672,-21.766C6.203,-23.703 4.969,-26.223 4.969,-29.328C4.969,-32.898 6.328,-35.676 9.047,-37.656C11.773,-39.645 15.531,-40.641 20.312,-40.641C25.207,-40.641 29.117,-39.555 32.047,-37.391C34.973,-35.223 36.566,-32.18 36.828,-28.266L30.484,-28.266C30.273,-30.453 29.289,-32.117 27.531,-33.266C25.781,-34.41 23.398,-34.984 20.391,-34.984C17.547,-34.984 15.32,-34.484 13.719,-33.484C12.113,-32.492 11.312,-31.109 11.312,-29.328C11.312,-27.648 12.125,-26.336 13.75,-25.391C15.375,-24.453 18.25,-23.578 22.375,-22.766C32.508,-20.773 37.578,-16.648 37.578,-10.391C37.578,-6.973 36.113,-4.219 33.188,-2.125C30.258,-0.039 26.352,1 21.469,1Z" style="fill:rgb(255,202,69);fill-rule:nonzero;"/>
        </g>
    </g>
    <g id="Casa">
        <g id="interior_casa" transform="matrix(1.333333,0,0,1.333333,-122.787629,-441.984375)">
            <path d="M338.059,441.75L426.27,441.75L426.27,368.242L382.164,338.84L338.059,368.242L338.059,441.75Z" style="fill:white;fill-rule:nonzero;"/>
        </g>
        <g id="sombra_casa" transform="matrix(1.333333,0,0,1.333333,-122.787629,-441.984375)">
            <path d="M393.926,348.617L352.762,375.594L352.762,441.75L338.059,441.75L338.059,368.242L382.164,338.84L393.926,348.617Z" style="fill:rgb(188,190,192);fill-rule:nonzero;"/>
        </g>
        <g id="estrutura_casa" transform="matrix(1.333333,0,0,1.333333,-122.787629,-441.984375)">
            <path d="M374.812,434.402L345.41,434.402L345.41,374.129L382.172,347.875L418.918,374.121L418.918,382.945C418.918,383.426 418.969,383.906 419.062,384.379C419.156,384.852 419.293,385.312 419.48,385.758C419.664,386.203 419.891,386.629 420.16,387.027C420.426,387.43 420.73,387.801 421.074,388.141C421.414,388.484 421.785,388.789 422.188,389.059C422.59,389.324 423.012,389.551 423.457,389.734C423.902,389.922 424.363,390.059 424.836,390.156C425.309,390.25 425.789,390.297 426.27,390.297C426.754,390.297 427.23,390.25 427.703,390.156C428.18,390.059 428.637,389.922 429.082,389.734C429.531,389.551 429.953,389.324 430.355,389.059C430.758,388.789 431.129,388.484 431.469,388.141C431.809,387.801 432.113,387.43 432.383,387.027C432.652,386.629 432.879,386.203 433.062,385.758C433.246,385.312 433.387,384.852 433.48,384.379C433.574,383.906 433.621,383.426 433.621,382.945L433.621,382.805C434.801,382.832 435.918,382.582 436.973,382.062C438.027,381.543 438.906,380.809 439.602,379.855C439.883,379.465 440.121,379.047 440.32,378.609C440.52,378.168 440.672,377.715 440.781,377.242C440.891,376.773 440.953,376.297 440.969,375.812C440.984,375.332 440.949,374.852 440.871,374.375C440.793,373.898 440.668,373.438 440.496,372.984C440.324,372.535 440.113,372.102 439.855,371.691C439.602,371.285 439.309,370.902 438.977,370.551C438.648,370.199 438.285,369.883 437.895,369.602L386.445,332.855C385.82,332.41 385.145,332.07 384.414,331.836C383.688,331.605 382.938,331.488 382.172,331.488C381.406,331.488 380.66,331.605 379.93,331.836C379.199,332.07 378.523,332.41 377.902,332.855L326.438,369.609C325.805,370.062 325.254,370.602 324.793,371.23C324.328,371.855 323.977,372.539 323.73,373.277C323.484,374.016 323.359,374.777 323.355,375.555C323.352,376.336 323.469,377.094 323.707,377.836C323.945,378.578 324.293,379.266 324.746,379.895C325.203,380.527 325.746,381.074 326.375,381.531C327.004,381.992 327.688,382.34 328.43,382.582C329.172,382.824 329.93,382.945 330.711,382.945L330.711,441.75C330.711,442.234 330.758,442.711 330.852,443.188C330.945,443.66 331.082,444.117 331.27,444.566C331.453,445.012 331.68,445.434 331.949,445.836C332.215,446.238 332.52,446.609 332.863,446.949C333.203,447.293 333.574,447.598 333.977,447.863C334.379,448.133 334.801,448.359 335.246,448.543C335.691,448.727 336.152,448.867 336.625,448.961C337.098,449.055 337.578,449.102 338.059,449.102L374.812,449.102C375.297,449.102 375.773,449.055 376.25,448.961C376.723,448.867 377.18,448.727 377.629,448.543C378.074,448.359 378.496,448.133 378.898,447.863C379.301,447.598 379.672,447.293 380.012,446.949C380.355,446.609 380.66,446.238 380.926,445.836C381.195,445.434 381.422,445.012 381.605,444.566C381.789,444.117 381.93,443.66 382.023,443.188C382.117,442.711 382.164,442.234 382.164,441.75C382.164,441.27 382.117,440.793 382.023,440.316C381.93,439.844 381.789,439.387 381.605,438.938C381.422,438.492 381.195,438.07 380.926,437.668C380.66,437.266 380.355,436.895 380.012,436.555C379.672,436.211 379.301,435.906 378.898,435.641C378.496,435.371 378.074,435.145 377.629,434.961C377.18,434.777 376.723,434.637 376.25,434.543C375.773,434.449 375.297,434.402 374.812,434.402Z" style="fill-rule:nonzero;"/>
        </g>
        <g id="janela_casa" transform="matrix(1.333333,0,0,1.333333,-122.787629,-441.984375)">
            <path d="M374.812,368.242C374.332,368.242 373.855,368.289 373.379,368.383C372.906,368.477 372.449,368.617 372,368.801C371.555,368.988 371.133,369.215 370.73,369.48C370.328,369.75 369.957,370.055 369.617,370.395C369.273,370.738 368.969,371.109 368.703,371.512C368.434,371.91 368.207,372.336 368.023,372.781C367.84,373.227 367.699,373.688 367.605,374.16C367.512,374.633 367.465,375.109 367.465,375.594C367.465,376.078 367.512,376.555 367.605,377.027C367.699,377.5 367.84,377.961 368.023,378.406C368.207,378.852 368.434,379.277 368.703,379.676C368.969,380.078 369.273,380.449 369.617,380.793C369.957,381.133 370.328,381.438 370.73,381.707C371.133,381.973 371.555,382.199 372,382.387C372.449,382.57 372.906,382.711 373.379,382.805C373.855,382.898 374.332,382.945 374.812,382.945L389.516,382.945C390,382.945 390.477,382.898 390.949,382.805C391.422,382.711 391.883,382.57 392.328,382.387C392.773,382.199 393.199,381.973 393.602,381.707C394,381.438 394.371,381.133 394.715,380.793C395.055,380.449 395.359,380.078 395.629,379.676C395.895,379.277 396.121,378.852 396.309,378.406C396.492,377.961 396.633,377.5 396.727,377.027C396.82,376.555 396.867,376.078 396.867,375.594C396.867,375.109 396.82,374.633 396.727,374.16C396.633,373.688 396.492,373.227 396.309,372.781C396.121,372.336 395.895,371.91 395.629,371.512C395.359,371.109 395.055,370.738 394.715,370.395C394.371,370.055 394,369.75 393.602,369.48C393.199,369.215 392.773,368.988 392.328,368.801C391.883,368.617 391.422,368.477 390.949,368.383C390.477,368.289 390,368.242 389.516,368.242L374.812,368.242Z" style="fill-rule:nonzero;"/>
        </g>
    </g>
    <g id="Lupa">
        <g id="lupa_dentro" transform="matrix(1.333333,0,0,1.333333,-122.787629,-441.984375)">
            <path d="M455.676,434.402C455.676,435.363 455.629,436.324 455.531,437.281C455.438,438.242 455.297,439.191 455.109,440.137C454.922,441.082 454.688,442.016 454.41,442.938C454.129,443.859 453.805,444.762 453.438,445.652C453.066,446.543 452.656,447.414 452.203,448.262C451.75,449.109 451.254,449.938 450.719,450.738C450.184,451.539 449.609,452.309 449,453.055C448.391,453.801 447.742,454.512 447.062,455.191C446.383,455.875 445.668,456.52 444.926,457.129C444.18,457.742 443.406,458.312 442.605,458.848C441.805,459.383 440.98,459.879 440.133,460.332C439.281,460.785 438.414,461.199 437.523,461.566C436.633,461.934 435.727,462.258 434.805,462.539C433.883,462.816 432.953,463.051 432.008,463.238C431.062,463.426 430.109,463.57 429.152,463.664C428.195,463.758 427.234,463.805 426.27,463.805C425.309,463.805 424.348,463.758 423.391,463.664C422.43,463.57 421.48,463.426 420.535,463.238C419.59,463.051 418.656,462.816 417.734,462.539C416.812,462.258 415.906,461.934 415.02,461.566C414.129,461.199 413.258,460.785 412.41,460.332C411.562,459.879 410.734,459.383 409.934,458.848C409.133,458.312 408.363,457.742 407.617,457.129C406.871,456.52 406.16,455.875 405.48,455.191C404.797,454.512 404.152,453.801 403.543,453.055C402.93,452.309 402.359,451.539 401.824,450.738C401.289,449.938 400.793,449.109 400.34,448.262C399.887,447.414 399.473,446.543 399.105,445.652C398.738,444.762 398.414,443.859 398.133,442.938C397.855,442.016 397.621,441.082 397.434,440.137C397.246,439.191 397.102,438.242 397.008,437.281C396.914,436.324 396.867,435.363 396.867,434.402C396.867,433.438 396.914,432.477 397.008,431.52C397.102,430.562 397.246,429.609 397.434,428.664C397.621,427.719 397.855,426.789 398.133,425.867C398.414,424.945 398.738,424.039 399.105,423.148C399.473,422.258 399.887,421.391 400.34,420.539C400.793,419.691 401.289,418.867 401.824,418.066C402.359,417.266 402.93,416.492 403.543,415.746C404.152,415.004 404.797,414.289 405.48,413.609C406.16,412.93 406.871,412.281 407.617,411.672C408.363,411.062 409.133,410.488 409.934,409.953C410.734,409.418 411.562,408.922 412.41,408.469C413.258,408.016 414.129,407.605 415.02,407.234C415.906,406.867 416.812,406.543 417.734,406.262C418.656,405.984 419.59,405.75 420.535,405.562C421.48,405.375 422.43,405.234 423.391,405.141C424.348,405.043 425.309,404.996 426.27,404.996C427.234,404.996 428.195,405.043 429.152,405.141C430.109,405.234 431.062,405.375 432.008,405.562C432.953,405.75 433.883,405.984 434.805,406.262C435.727,406.543 436.633,406.867 437.523,407.234C438.414,407.605 439.281,408.016 440.133,408.469C440.98,408.922 441.805,409.418 442.605,409.953C443.406,410.488 444.18,411.062 444.926,411.672C445.668,412.281 446.383,412.93 447.062,413.609C447.742,414.289 448.391,415.004 449,415.746C449.609,416.492 450.184,417.266 450.719,418.066C451.254,418.867 451.75,419.691 452.203,420.539C452.656,421.391 453.066,422.258 453.438,423.148C453.805,424.039 454.129,424.945 454.41,425.867C454.688,426.789 454.922,427.719 455.109,428.664C455.297,429.609 455.438,430.562 455.531,431.52C455.629,432.477 455.676,433.438 455.676,434.402Z" style="fill:rgb(255,202,69);fill-rule:nonzero;"/>
        </g>
        <g id="sombra_lupa_dentro" transform="matrix(1.333333,0,0,1.333333,-122.787629,-441.984375)">
            <path d="M433.621,462.848C431.215,463.508 428.766,463.828 426.27,463.805C425.309,463.805 424.348,463.758 423.391,463.664C422.43,463.57 421.48,463.426 420.535,463.238C419.59,463.051 418.656,462.816 417.734,462.539C416.812,462.258 415.906,461.934 415.02,461.566C414.129,461.199 413.258,460.785 412.41,460.332C411.562,459.879 410.734,459.383 409.934,458.848C409.133,458.312 408.363,457.742 407.617,457.129C406.871,456.52 406.16,455.875 405.48,455.191C404.797,454.512 404.152,453.801 403.543,453.055C402.93,452.309 402.359,451.539 401.824,450.738C401.289,449.938 400.793,449.109 400.34,448.262C399.887,447.414 399.473,446.543 399.105,445.652C398.738,444.762 398.414,443.859 398.133,442.938C397.855,442.016 397.621,441.082 397.434,440.137C397.246,439.191 397.102,438.242 397.008,437.281C396.914,436.324 396.867,435.363 396.867,434.402C396.867,433.438 396.914,432.477 397.008,431.52C397.102,430.562 397.246,429.609 397.434,428.664C397.621,427.719 397.855,426.789 398.133,425.867C398.414,424.945 398.738,424.039 399.105,423.148C399.473,422.258 399.887,421.391 400.34,420.539C400.793,419.691 401.289,418.867 401.824,418.066C402.359,417.266 402.93,416.492 403.543,415.746C404.152,415.004 404.797,414.289 405.48,413.609C406.16,412.93 406.871,412.281 407.617,411.672C408.363,411.062 409.133,410.488 409.934,409.953C410.734,409.418 411.562,408.922 412.41,408.469C413.258,408.016 414.129,407.605 415.02,407.234C415.906,406.867 416.812,406.543 417.734,406.262C418.656,405.984 419.59,405.75 420.535,405.562C421.48,405.375 422.43,405.234 423.391,405.141C424.348,405.043 425.309,404.996 426.27,404.996C428.766,404.977 431.215,405.293 433.621,405.953C432.055,406.355 430.531,406.887 429.051,407.539C427.574,408.195 426.156,408.969 424.805,409.855C423.453,410.746 422.184,411.738 420.996,412.836C419.809,413.938 418.719,415.125 417.727,416.402C416.734,417.684 415.855,419.035 415.09,420.457C414.32,421.883 413.676,423.359 413.148,424.891C412.625,426.422 412.23,427.984 411.965,429.578C411.699,431.176 411.566,432.781 411.566,434.402C411.566,436.02 411.699,437.625 411.965,439.223C412.23,440.816 412.625,442.383 413.148,443.914C413.676,445.441 414.32,446.922 415.09,448.344C415.855,449.77 416.734,451.121 417.727,452.398C418.719,453.676 419.809,454.867 420.996,455.965C422.184,457.062 423.453,458.059 424.805,458.945C426.156,459.836 427.574,460.605 429.051,461.262C430.531,461.918 432.055,462.445 433.621,462.848Z" style="fill:rgb(204,158,58);fill-rule:nonzero;"/>
        </g>
        <g id="lupa_fora" transform="matrix(1.333333,0,0,1.333333,-122.787629,-441.984375)">
            <path d="M468.223,465.957L456.902,454.637C457.316,454.012 457.715,453.371 458.09,452.719C458.465,452.066 458.824,451.402 459.16,450.727C459.496,450.055 459.809,449.371 460.102,448.676C460.398,447.984 460.668,447.281 460.922,446.57C461.172,445.863 461.398,445.145 461.605,444.422C461.812,443.695 462,442.965 462.16,442.23C462.324,441.496 462.461,440.754 462.578,440.012C462.695,439.27 462.789,438.52 462.859,437.77C462.934,437.02 462.98,436.27 463.004,435.516C463.031,434.766 463.031,434.012 463.012,433.258C462.988,432.508 462.945,431.754 462.879,431.004C462.812,430.254 462.723,429.508 462.609,428.762C462.496,428.02 462.359,427.277 462.203,426.543C462.043,425.805 461.863,425.074 461.66,424.348C461.457,423.625 461.23,422.906 460.984,422.195C460.738,421.484 460.469,420.781 460.18,420.086C459.887,419.391 459.578,418.703 459.246,418.027C458.91,417.352 458.559,416.688 458.188,416.035C457.812,415.379 457.422,414.738 457.008,414.105C456.598,413.477 456.164,412.859 455.715,412.254C455.266,411.652 454.797,411.062 454.309,410.488C453.824,409.914 453.32,409.352 452.801,408.809C452.277,408.266 451.742,407.738 451.188,407.227C450.637,406.715 450.066,406.219 449.484,405.742C448.902,405.266 448.305,404.809 447.691,404.367C447.082,403.93 446.457,403.508 445.82,403.105C445.184,402.703 444.535,402.324 443.875,401.961C443.215,401.598 442.543,401.258 441.863,400.938C441.18,400.617 440.488,400.316 439.789,400.039C439.09,399.762 438.383,399.504 437.668,399.27C436.953,399.035 436.23,398.82 435.5,398.629C434.773,398.438 434.039,398.27 433.301,398.125C432.562,397.98 431.816,397.855 431.07,397.754C430.324,397.656 429.578,397.578 428.824,397.523C428.074,397.469 427.324,397.438 426.57,397.43C425.816,397.422 425.062,397.434 424.312,397.473C423.559,397.512 422.809,397.57 422.059,397.656C421.312,397.738 420.566,397.848 419.824,397.977C419.082,398.105 418.348,398.258 417.613,398.43C416.879,398.605 416.152,398.805 415.434,399.023C414.715,399.242 414,399.48 413.293,399.746C412.59,400.008 411.891,400.293 411.203,400.598C410.516,400.902 409.836,401.23 409.168,401.578C408.5,401.922 407.844,402.293 407.195,402.68C406.551,403.066 405.918,403.473 405.297,403.898C404.676,404.324 404.07,404.77 403.477,405.234C402.883,405.695 402.301,406.18 401.738,406.676C401.176,407.176 400.625,407.691 400.094,408.223C399.562,408.758 399.047,409.305 398.547,409.871C398.047,410.434 397.566,411.012 397.102,411.605C396.641,412.199 396.195,412.809 395.77,413.426C395.344,414.047 394.934,414.684 394.547,415.328C394.16,415.973 393.793,416.629 393.445,417.301C393.098,417.969 392.773,418.645 392.465,419.332C392.16,420.023 391.875,420.719 391.613,421.426C391.352,422.133 391.109,422.844 390.891,423.566C390.672,424.285 390.477,425.012 390.301,425.746C390.125,426.477 389.973,427.215 389.844,427.957C389.715,428.699 389.609,429.441 389.523,430.191C389.441,430.941 389.379,431.691 389.344,432.441C389.305,433.195 389.289,433.945 389.297,434.699C389.305,435.453 389.336,436.207 389.391,436.957C389.445,437.707 389.523,438.457 389.625,439.203C389.727,439.949 389.848,440.691 389.992,441.43C390.141,442.168 390.309,442.902 390.5,443.633C390.691,444.359 390.902,445.082 391.137,445.797C391.371,446.512 391.629,447.223 391.906,447.922C392.188,448.621 392.484,449.312 392.805,449.992C393.129,450.672 393.469,451.344 393.832,452.004C394.191,452.664 394.574,453.316 394.977,453.953C395.379,454.59 395.797,455.211 396.238,455.824C396.68,456.434 397.137,457.031 397.613,457.617C398.09,458.199 398.582,458.766 399.094,459.32C399.605,459.871 400.133,460.41 400.676,460.93C401.223,461.449 401.781,461.953 402.355,462.441C402.93,462.926 403.52,463.395 404.125,463.844C404.727,464.297 405.344,464.727 405.977,465.141C406.605,465.551 407.246,465.945 407.902,466.316C408.555,466.691 409.223,467.043 409.898,467.375C410.574,467.707 411.258,468.02 411.953,468.309C412.648,468.598 413.352,468.867 414.062,469.113C414.773,469.363 415.492,469.586 416.219,469.789C416.941,469.992 417.676,470.176 418.41,470.332C419.148,470.492 419.887,470.625 420.633,470.738C421.375,470.852 422.125,470.941 422.875,471.008C423.625,471.078 424.375,471.121 425.129,471.141C425.883,471.164 426.633,471.16 427.387,471.137C428.141,471.109 428.891,471.062 429.641,470.992C430.391,470.922 431.137,470.828 431.879,470.711C432.625,470.594 433.363,470.453 434.102,470.293C434.836,470.129 435.566,469.945 436.289,469.738C437.012,469.531 437.73,469.301 438.441,469.051C439.152,468.801 439.852,468.527 440.547,468.234C441.238,467.941 441.922,467.625 442.598,467.289C443.27,466.953 443.934,466.598 444.586,466.223C445.238,465.844 445.879,465.449 446.508,465.031L457.828,476.352C458.172,476.688 458.543,476.984 458.941,477.246C459.344,477.508 459.766,477.73 460.211,477.906C460.656,478.086 461.113,478.223 461.582,478.312C462.051,478.402 462.527,478.445 463.004,478.441C463.484,478.438 463.957,478.387 464.426,478.293C464.898,478.199 465.352,478.059 465.793,477.871C466.234,477.688 466.656,477.461 467.055,477.195C467.449,476.93 467.82,476.625 468.156,476.289C468.496,475.949 468.797,475.582 469.066,475.184C469.332,474.785 469.559,474.367 469.742,473.926C469.926,473.484 470.066,473.027 470.16,472.559C470.258,472.09 470.309,471.617 470.309,471.137C470.312,470.656 470.27,470.184 470.18,469.715C470.09,469.242 469.957,468.785 469.777,468.34C469.598,467.898 469.379,467.477 469.117,467.074C468.855,466.672 468.555,466.301 468.223,465.957ZM404.219,434.402C404.219,433.68 404.254,432.957 404.324,432.238C404.395,431.52 404.5,430.809 404.641,430.098C404.781,429.391 404.957,428.691 405.168,428C405.379,427.309 405.621,426.629 405.898,425.961C406.172,425.293 406.48,424.641 406.82,424.004C407.164,423.367 407.535,422.75 407.934,422.148C408.336,421.547 408.766,420.969 409.223,420.41C409.684,419.852 410.168,419.316 410.676,418.809C411.188,418.297 411.723,417.812 412.281,417.355C412.84,416.895 413.418,416.465 414.02,416.066C414.621,415.664 415.238,415.293 415.875,414.953C416.512,414.613 417.164,414.305 417.832,414.027C418.5,413.75 419.18,413.508 419.871,413.297C420.559,413.09 421.262,412.914 421.969,412.773C422.676,412.633 423.391,412.523 424.109,412.453C424.828,412.383 425.547,412.348 426.27,412.348C426.992,412.348 427.715,412.383 428.434,412.453C429.152,412.523 429.863,412.633 430.574,412.773C431.281,412.914 431.98,413.09 432.672,413.297C433.363,413.508 434.043,413.75 434.711,414.027C435.379,414.305 436.031,414.613 436.668,414.953C437.305,415.293 437.922,415.664 438.523,416.066C439.125,416.465 439.703,416.895 440.262,417.355C440.82,417.812 441.355,418.297 441.863,418.809C442.375,419.316 442.859,419.852 443.316,420.41C443.777,420.969 444.207,421.547 444.605,422.148C445.008,422.75 445.379,423.367 445.719,424.004C446.059,424.641 446.367,425.293 446.645,425.961C446.922,426.629 447.164,427.309 447.375,428C447.582,428.691 447.758,429.391 447.898,430.098C448.039,430.809 448.148,431.52 448.219,432.238C448.289,432.957 448.324,433.68 448.324,434.402C448.324,435.125 448.289,435.844 448.219,436.562C448.148,437.281 448.039,437.996 447.898,438.703C447.758,439.41 447.582,440.113 447.375,440.801C447.164,441.492 446.922,442.172 446.645,442.84C446.367,443.508 446.059,444.16 445.719,444.797C445.379,445.434 445.008,446.051 444.605,446.652C444.207,447.254 443.777,447.832 443.316,448.391C442.859,448.949 442.375,449.484 441.863,449.996C441.355,450.504 440.82,450.988 440.262,451.449C439.703,451.906 439.125,452.336 438.523,452.738C437.922,453.137 437.305,453.508 436.668,453.852C436.031,454.191 435.379,454.5 434.711,454.773C434.043,455.051 433.363,455.293 432.672,455.504C431.98,455.715 431.281,455.891 430.574,456.031C429.863,456.172 429.152,456.277 428.434,456.348C427.715,456.418 426.992,456.453 426.27,456.453C425.547,456.453 424.828,456.418 424.109,456.344C423.391,456.273 422.68,456.168 421.969,456.027C421.262,455.883 420.562,455.707 419.871,455.5C419.18,455.289 418.504,455.047 417.836,454.77C417.168,454.492 416.516,454.184 415.879,453.844C415.242,453.504 414.625,453.133 414.023,452.73C413.426,452.328 412.844,451.898 412.289,451.441C411.73,450.984 411.195,450.5 410.684,449.988C410.172,449.477 409.688,448.941 409.23,448.383C408.773,447.828 408.344,447.246 407.941,446.648C407.539,446.047 407.168,445.43 406.828,444.793C406.488,444.156 406.18,443.504 405.902,442.836C405.625,442.168 405.383,441.492 405.172,440.801C404.965,440.109 404.789,439.41 404.645,438.703C404.504,437.992 404.398,437.281 404.328,436.562C404.254,435.844 404.219,435.125 404.219,434.402Z" style="fill-rule:nonzero;"/>
        </g>
    </g>
</svg>
